# xmcd
#
# Track frame offsets: 
#        182
#        29507
#        42895
#        54382
#        66220
#        78982
#        90620
#        102557
#        115032
#        126257
#        136807
#        150220
#        160270
#        171032
#        184782
#        196932
#        210557
#        223270
#        233957
#        247907
#        265095
#        278507
#        289495
#        301707
#
# Disc length: 4185 seconds
#
# Revision: 1
# Processed by: cddbd v1.5.2PL0 Copyright (c) Steve Scherf et al.
# Submitted via: ExactAudioCopyFreeDBPlugin 1.0
#
DISCID=4b105718
DTITLE=Various Artist - Black Blues Box
DYEAR=1986
DGENRE=Blues
TTITLE0=Howli'n Wolf - Back Door Man
TTITLE1=Muddy Waters - Rollin and Tumblin
TTITLE2=John Lee Hooker - Crawlin Kingsnake
TTITLE3=Jimmy Reed - Bright Ligts, Big City
TTITLE4=Tommy Tucker - High Steel Sneakers
TTITLE5=Little Walter - My Baby
TTITLE6=Chuck Berry - Around and Around
TTITLE7=Bo Diddley - I'm a man
TTITLE8=Elmore James - Comming Home
TTITLE9=Willie Mabon - I'm mad
TTITLE10=Koko Taylor - Wang Dang Doodle
TTITLE11=Jimmy Witherspoon - Kansas City
TTITLE12=Howli'n Wolf - Little Red Rooster
TTITLE13=Willie Dixon - Walking the Blues
TTITLE14=Jimmy Reed - Honest I do
TTITLE15=Elmore James - Dust my Broom
TTITLE16=Muddy Waters - Hoochie Coochie Man
TTITLE17=John Lee Hooker - Boom Boom Boom
TTITLE18=Sonny Boy Williamson - Help Me
TTITLE19=Howli'n Wolf - Spoonful
TTITLE20=Eddie Taylor - Bad Boy
TTITLE21=J. B. Lenoir - Mama Talk to Your Daughter
TTITLE22=John Lee Hooker - I'm in the mood
TTITLE23=Muddy Waters - I Can't be Satisfied
EXTD=YEAR: 1966
EXTT0=
EXTT1=
EXTT2=
EXTT3=
EXTT4=
EXTT5=
EXTT6=
EXTT7=
EXTT8=
EXTT9=
EXTT10=
EXTT11=
EXTT12=
EXTT13=
EXTT14=
EXTT15=
EXTT16=
EXTT17=
EXTT18=
EXTT19=
EXTT20=
EXTT21=
EXTT22=
EXTT23=
PLAYORDER=
